<mxfile host="app.diagrams.net" modified="2020-08-25T12:20:18.093Z" agent="5.0 (X11; Linux x86_64) AppleWebKit/537.36 (KHTML, like Gecko) Chrome/84.0.4147.125 Safari/537.36" etag="YFG3LqhsVf8UrISjt17L" version="13.5.8" type="github" pages="7">
  <diagram id="SHlIxUWun1tNeiMXr0mh" name="Temp OBJ">
    <mxGraphModel dx="1205" dy="459" grid="1" gridSize="10" guides="1" tooltips="1" connect="1" arrows="1" fold="1" page="1" pageScale="1" pageWidth="1169" pageHeight="827" math="0" shadow="0">
      <root>
        <mxCell id="0" />
        <mxCell id="1" parent="0" />
        <mxCell id="ZNjrKugkNybo0TKN56oL-1" value="" style="rounded=0;whiteSpace=wrap;html=1;fillColor=none;glass=0;strokeWidth=2;perimeter=rectanglePerimeter;" parent="1" vertex="1">
          <mxGeometry x="40" y="200" width="1100" height="80" as="geometry" />
        </mxCell>
        <mxCell id="ZNjrKugkNybo0TKN56oL-2" value="1" style="text;html=1;strokeColor=none;fillColor=none;align=center;verticalAlign=middle;whiteSpace=wrap;rounded=0;" parent="1" vertex="1">
          <mxGeometry x="60" y="170" width="40" height="20" as="geometry" />
        </mxCell>
        <mxCell id="ZNjrKugkNybo0TKN56oL-3" value="2" style="text;html=1;strokeColor=none;fillColor=none;align=center;verticalAlign=middle;whiteSpace=wrap;rounded=0;" parent="1" vertex="1">
          <mxGeometry x="100" y="170" width="40" height="20" as="geometry" />
        </mxCell>
        <mxCell id="ZNjrKugkNybo0TKN56oL-4" value="3" style="text;html=1;strokeColor=none;fillColor=none;align=center;verticalAlign=middle;whiteSpace=wrap;rounded=0;" parent="1" vertex="1">
          <mxGeometry x="140" y="170" width="40" height="20" as="geometry" />
        </mxCell>
        <mxCell id="ZNjrKugkNybo0TKN56oL-5" value="10" style="text;html=1;strokeColor=none;fillColor=none;align=center;verticalAlign=middle;whiteSpace=wrap;rounded=0;" parent="1" vertex="1">
          <mxGeometry x="420" y="170" width="40" height="20" as="geometry" />
        </mxCell>
        <mxCell id="ZNjrKugkNybo0TKN56oL-6" value="11" style="text;html=1;strokeColor=none;fillColor=none;align=center;verticalAlign=middle;whiteSpace=wrap;rounded=0;" parent="1" vertex="1">
          <mxGeometry x="460" y="170" width="40" height="20" as="geometry" />
        </mxCell>
        <mxCell id="ZNjrKugkNybo0TKN56oL-9" value="7" style="text;html=1;strokeColor=none;fillColor=none;align=center;verticalAlign=middle;whiteSpace=wrap;rounded=0;" parent="1" vertex="1">
          <mxGeometry x="300" y="170" width="40" height="20" as="geometry" />
        </mxCell>
        <mxCell id="ZNjrKugkNybo0TKN56oL-10" value="12" style="text;html=1;strokeColor=none;fillColor=none;align=center;verticalAlign=middle;whiteSpace=wrap;rounded=0;" parent="1" vertex="1">
          <mxGeometry x="500" y="170" width="40" height="20" as="geometry" />
        </mxCell>
        <mxCell id="ZNjrKugkNybo0TKN56oL-11" value="5" style="text;html=1;strokeColor=none;fillColor=none;align=center;verticalAlign=middle;whiteSpace=wrap;rounded=0;" parent="1" vertex="1">
          <mxGeometry x="220" y="170" width="40" height="20" as="geometry" />
        </mxCell>
        <mxCell id="ZNjrKugkNybo0TKN56oL-13" value="4" style="text;html=1;strokeColor=none;fillColor=none;align=center;verticalAlign=middle;whiteSpace=wrap;rounded=0;" parent="1" vertex="1">
          <mxGeometry x="180" y="170" width="40" height="20" as="geometry" />
        </mxCell>
        <mxCell id="ZNjrKugkNybo0TKN56oL-14" value="6" style="text;html=1;strokeColor=none;fillColor=none;align=center;verticalAlign=middle;whiteSpace=wrap;rounded=0;" parent="1" vertex="1">
          <mxGeometry x="260" y="170" width="40" height="20" as="geometry" />
        </mxCell>
        <mxCell id="ZNjrKugkNybo0TKN56oL-15" value="0" style="text;html=1;strokeColor=none;fillColor=none;align=center;verticalAlign=middle;whiteSpace=wrap;rounded=0;" parent="1" vertex="1">
          <mxGeometry x="20" y="170" width="40" height="20" as="geometry" />
        </mxCell>
        <mxCell id="ZNjrKugkNybo0TKN56oL-16" value="8" style="text;html=1;strokeColor=none;fillColor=none;align=center;verticalAlign=middle;whiteSpace=wrap;rounded=0;" parent="1" vertex="1">
          <mxGeometry x="340" y="170" width="40" height="20" as="geometry" />
        </mxCell>
        <mxCell id="ZNjrKugkNybo0TKN56oL-22" value="9" style="text;html=1;strokeColor=none;fillColor=none;align=center;verticalAlign=middle;whiteSpace=wrap;rounded=0;" parent="1" vertex="1">
          <mxGeometry x="380" y="170" width="40" height="20" as="geometry" />
        </mxCell>
        <mxCell id="ZNjrKugkNybo0TKN56oL-23" value="16" style="text;html=1;strokeColor=none;fillColor=none;align=center;verticalAlign=middle;whiteSpace=wrap;rounded=0;" parent="1" vertex="1">
          <mxGeometry x="660" y="170" width="40" height="20" as="geometry" />
        </mxCell>
        <mxCell id="ZNjrKugkNybo0TKN56oL-24" value="18" style="text;html=1;strokeColor=none;fillColor=none;align=center;verticalAlign=middle;whiteSpace=wrap;rounded=0;" parent="1" vertex="1">
          <mxGeometry x="740" y="170" width="40" height="20" as="geometry" />
        </mxCell>
        <mxCell id="ZNjrKugkNybo0TKN56oL-28" value="17" style="text;html=1;strokeColor=none;fillColor=none;align=center;verticalAlign=middle;whiteSpace=wrap;rounded=0;" parent="1" vertex="1">
          <mxGeometry x="700" y="170" width="40" height="20" as="geometry" />
        </mxCell>
        <mxCell id="ZNjrKugkNybo0TKN56oL-29" value="15" style="text;html=1;strokeColor=none;fillColor=none;align=center;verticalAlign=middle;whiteSpace=wrap;rounded=0;" parent="1" vertex="1">
          <mxGeometry x="620" y="170" width="40" height="20" as="geometry" />
        </mxCell>
        <mxCell id="ZNjrKugkNybo0TKN56oL-30" value="13" style="text;html=1;strokeColor=none;fillColor=none;align=center;verticalAlign=middle;whiteSpace=wrap;rounded=0;" parent="1" vertex="1">
          <mxGeometry x="540" y="170" width="40" height="20" as="geometry" />
        </mxCell>
        <mxCell id="ZNjrKugkNybo0TKN56oL-31" value="14" style="text;html=1;strokeColor=none;fillColor=none;align=center;verticalAlign=middle;whiteSpace=wrap;rounded=0;" parent="1" vertex="1">
          <mxGeometry x="580" y="170" width="40" height="20" as="geometry" />
        </mxCell>
        <mxCell id="ZNjrKugkNybo0TKN56oL-34" value="19" style="text;html=1;strokeColor=none;fillColor=none;align=center;verticalAlign=middle;whiteSpace=wrap;rounded=0;" parent="1" vertex="1">
          <mxGeometry x="780" y="170" width="40" height="20" as="geometry" />
        </mxCell>
        <mxCell id="ZNjrKugkNybo0TKN56oL-35" value="20" style="text;html=1;strokeColor=none;fillColor=none;align=center;verticalAlign=middle;whiteSpace=wrap;rounded=0;" parent="1" vertex="1">
          <mxGeometry x="820" y="170" width="40" height="20" as="geometry" />
        </mxCell>
        <mxCell id="ZNjrKugkNybo0TKN56oL-36" value="24" style="text;html=1;strokeColor=none;fillColor=none;align=center;verticalAlign=middle;whiteSpace=wrap;rounded=0;" parent="1" vertex="1">
          <mxGeometry x="980" y="170" width="40" height="20" as="geometry" />
        </mxCell>
        <mxCell id="ZNjrKugkNybo0TKN56oL-37" value="26" style="text;html=1;strokeColor=none;fillColor=none;align=center;verticalAlign=middle;whiteSpace=wrap;rounded=0;" parent="1" vertex="1">
          <mxGeometry x="1060" y="170" width="40" height="20" as="geometry" />
        </mxCell>
        <mxCell id="ZNjrKugkNybo0TKN56oL-38" value="25" style="text;html=1;strokeColor=none;fillColor=none;align=center;verticalAlign=middle;whiteSpace=wrap;rounded=0;" parent="1" vertex="1">
          <mxGeometry x="1020" y="170" width="40" height="20" as="geometry" />
        </mxCell>
        <mxCell id="ZNjrKugkNybo0TKN56oL-39" value="23" style="text;html=1;strokeColor=none;fillColor=none;align=center;verticalAlign=middle;whiteSpace=wrap;rounded=0;" parent="1" vertex="1">
          <mxGeometry x="940" y="170" width="40" height="20" as="geometry" />
        </mxCell>
        <mxCell id="ZNjrKugkNybo0TKN56oL-40" value="21" style="text;html=1;strokeColor=none;fillColor=none;align=center;verticalAlign=middle;whiteSpace=wrap;rounded=0;" parent="1" vertex="1">
          <mxGeometry x="860" y="170" width="40" height="20" as="geometry" />
        </mxCell>
        <mxCell id="ZNjrKugkNybo0TKN56oL-41" value="22" style="text;html=1;strokeColor=none;fillColor=none;align=center;verticalAlign=middle;whiteSpace=wrap;rounded=0;" parent="1" vertex="1">
          <mxGeometry x="900" y="170" width="40" height="20" as="geometry" />
        </mxCell>
        <mxCell id="ZNjrKugkNybo0TKN56oL-43" value="27" style="text;html=1;strokeColor=none;fillColor=none;align=center;verticalAlign=middle;whiteSpace=wrap;rounded=0;" parent="1" vertex="1">
          <mxGeometry x="1100" y="170" width="40" height="20" as="geometry" />
        </mxCell>
        <mxCell id="9E403mk027WgOA1cJgYw-1" value="" style="rounded=0;whiteSpace=wrap;html=1;fillColor=none;glass=0;strokeWidth=2;perimeter=rectanglePerimeter;" parent="1" vertex="1">
          <mxGeometry x="40" y="360" width="1100" height="80" as="geometry" />
        </mxCell>
        <mxCell id="9E403mk027WgOA1cJgYw-2" value="29" style="text;html=1;strokeColor=none;fillColor=none;align=center;verticalAlign=middle;whiteSpace=wrap;rounded=0;" parent="1" vertex="1">
          <mxGeometry x="60" y="330" width="40" height="20" as="geometry" />
        </mxCell>
        <mxCell id="9E403mk027WgOA1cJgYw-3" value="30" style="text;html=1;strokeColor=none;fillColor=none;align=center;verticalAlign=middle;whiteSpace=wrap;rounded=0;" parent="1" vertex="1">
          <mxGeometry x="100" y="330" width="40" height="20" as="geometry" />
        </mxCell>
        <mxCell id="9E403mk027WgOA1cJgYw-4" value="31" style="text;html=1;strokeColor=none;fillColor=none;align=center;verticalAlign=middle;whiteSpace=wrap;rounded=0;" parent="1" vertex="1">
          <mxGeometry x="140" y="330" width="40" height="20" as="geometry" />
        </mxCell>
        <mxCell id="9E403mk027WgOA1cJgYw-5" value="38" style="text;html=1;strokeColor=none;fillColor=none;align=center;verticalAlign=middle;whiteSpace=wrap;rounded=0;" parent="1" vertex="1">
          <mxGeometry x="420" y="330" width="40" height="20" as="geometry" />
        </mxCell>
        <mxCell id="9E403mk027WgOA1cJgYw-6" value="39" style="text;html=1;strokeColor=none;fillColor=none;align=center;verticalAlign=middle;whiteSpace=wrap;rounded=0;" parent="1" vertex="1">
          <mxGeometry x="460" y="330" width="40" height="20" as="geometry" />
        </mxCell>
        <mxCell id="9E403mk027WgOA1cJgYw-7" value="35" style="text;html=1;strokeColor=none;fillColor=none;align=center;verticalAlign=middle;whiteSpace=wrap;rounded=0;" parent="1" vertex="1">
          <mxGeometry x="300" y="330" width="40" height="20" as="geometry" />
        </mxCell>
        <mxCell id="9E403mk027WgOA1cJgYw-8" value="40" style="text;html=1;strokeColor=none;fillColor=none;align=center;verticalAlign=middle;whiteSpace=wrap;rounded=0;" parent="1" vertex="1">
          <mxGeometry x="500" y="330" width="40" height="20" as="geometry" />
        </mxCell>
        <mxCell id="9E403mk027WgOA1cJgYw-9" value="33" style="text;html=1;strokeColor=none;fillColor=none;align=center;verticalAlign=middle;whiteSpace=wrap;rounded=0;" parent="1" vertex="1">
          <mxGeometry x="220" y="330" width="40" height="20" as="geometry" />
        </mxCell>
        <mxCell id="9E403mk027WgOA1cJgYw-10" value="32" style="text;html=1;strokeColor=none;fillColor=none;align=center;verticalAlign=middle;whiteSpace=wrap;rounded=0;" parent="1" vertex="1">
          <mxGeometry x="180" y="330" width="40" height="20" as="geometry" />
        </mxCell>
        <mxCell id="9E403mk027WgOA1cJgYw-11" value="34" style="text;html=1;strokeColor=none;fillColor=none;align=center;verticalAlign=middle;whiteSpace=wrap;rounded=0;" parent="1" vertex="1">
          <mxGeometry x="260" y="330" width="40" height="20" as="geometry" />
        </mxCell>
        <mxCell id="9E403mk027WgOA1cJgYw-12" value="28" style="text;html=1;strokeColor=none;fillColor=none;align=center;verticalAlign=middle;whiteSpace=wrap;rounded=0;" parent="1" vertex="1">
          <mxGeometry x="20" y="330" width="40" height="20" as="geometry" />
        </mxCell>
        <mxCell id="9E403mk027WgOA1cJgYw-13" value="36" style="text;html=1;strokeColor=none;fillColor=none;align=center;verticalAlign=middle;whiteSpace=wrap;rounded=0;" parent="1" vertex="1">
          <mxGeometry x="340" y="330" width="40" height="20" as="geometry" />
        </mxCell>
        <mxCell id="9E403mk027WgOA1cJgYw-14" value="37" style="text;html=1;strokeColor=none;fillColor=none;align=center;verticalAlign=middle;whiteSpace=wrap;rounded=0;" parent="1" vertex="1">
          <mxGeometry x="380" y="330" width="40" height="20" as="geometry" />
        </mxCell>
        <mxCell id="9E403mk027WgOA1cJgYw-15" value="44" style="text;html=1;strokeColor=none;fillColor=none;align=center;verticalAlign=middle;whiteSpace=wrap;rounded=0;" parent="1" vertex="1">
          <mxGeometry x="660" y="330" width="40" height="20" as="geometry" />
        </mxCell>
        <mxCell id="9E403mk027WgOA1cJgYw-16" value="46" style="text;html=1;strokeColor=none;fillColor=none;align=center;verticalAlign=middle;whiteSpace=wrap;rounded=0;" parent="1" vertex="1">
          <mxGeometry x="740" y="330" width="40" height="20" as="geometry" />
        </mxCell>
        <mxCell id="9E403mk027WgOA1cJgYw-17" value="45" style="text;html=1;strokeColor=none;fillColor=none;align=center;verticalAlign=middle;whiteSpace=wrap;rounded=0;" parent="1" vertex="1">
          <mxGeometry x="700" y="330" width="40" height="20" as="geometry" />
        </mxCell>
        <mxCell id="9E403mk027WgOA1cJgYw-18" value="43" style="text;html=1;strokeColor=none;fillColor=none;align=center;verticalAlign=middle;whiteSpace=wrap;rounded=0;" parent="1" vertex="1">
          <mxGeometry x="620" y="330" width="40" height="20" as="geometry" />
        </mxCell>
        <mxCell id="9E403mk027WgOA1cJgYw-19" value="41" style="text;html=1;strokeColor=none;fillColor=none;align=center;verticalAlign=middle;whiteSpace=wrap;rounded=0;" parent="1" vertex="1">
          <mxGeometry x="540" y="330" width="40" height="20" as="geometry" />
        </mxCell>
        <mxCell id="9E403mk027WgOA1cJgYw-20" value="42" style="text;html=1;strokeColor=none;fillColor=none;align=center;verticalAlign=middle;whiteSpace=wrap;rounded=0;" parent="1" vertex="1">
          <mxGeometry x="580" y="330" width="40" height="20" as="geometry" />
        </mxCell>
        <mxCell id="9E403mk027WgOA1cJgYw-21" value="47" style="text;html=1;strokeColor=none;fillColor=none;align=center;verticalAlign=middle;whiteSpace=wrap;rounded=0;" parent="1" vertex="1">
          <mxGeometry x="780" y="330" width="40" height="20" as="geometry" />
        </mxCell>
        <mxCell id="9E403mk027WgOA1cJgYw-22" value="48" style="text;html=1;strokeColor=none;fillColor=none;align=center;verticalAlign=middle;whiteSpace=wrap;rounded=0;" parent="1" vertex="1">
          <mxGeometry x="820" y="330" width="40" height="20" as="geometry" />
        </mxCell>
        <mxCell id="9E403mk027WgOA1cJgYw-23" value="52" style="text;html=1;strokeColor=none;fillColor=none;align=center;verticalAlign=middle;whiteSpace=wrap;rounded=0;" parent="1" vertex="1">
          <mxGeometry x="980" y="330" width="40" height="20" as="geometry" />
        </mxCell>
        <mxCell id="9E403mk027WgOA1cJgYw-24" value="54" style="text;html=1;strokeColor=none;fillColor=none;align=center;verticalAlign=middle;whiteSpace=wrap;rounded=0;" parent="1" vertex="1">
          <mxGeometry x="1060" y="330" width="40" height="20" as="geometry" />
        </mxCell>
        <mxCell id="9E403mk027WgOA1cJgYw-25" value="53" style="text;html=1;strokeColor=none;fillColor=none;align=center;verticalAlign=middle;whiteSpace=wrap;rounded=0;" parent="1" vertex="1">
          <mxGeometry x="1020" y="330" width="40" height="20" as="geometry" />
        </mxCell>
        <mxCell id="9E403mk027WgOA1cJgYw-26" value="51" style="text;html=1;strokeColor=none;fillColor=none;align=center;verticalAlign=middle;whiteSpace=wrap;rounded=0;" parent="1" vertex="1">
          <mxGeometry x="940" y="330" width="40" height="20" as="geometry" />
        </mxCell>
        <mxCell id="9E403mk027WgOA1cJgYw-27" value="49" style="text;html=1;strokeColor=none;fillColor=none;align=center;verticalAlign=middle;whiteSpace=wrap;rounded=0;" parent="1" vertex="1">
          <mxGeometry x="860" y="330" width="40" height="20" as="geometry" />
        </mxCell>
        <mxCell id="9E403mk027WgOA1cJgYw-28" value="50" style="text;html=1;strokeColor=none;fillColor=none;align=center;verticalAlign=middle;whiteSpace=wrap;rounded=0;" parent="1" vertex="1">
          <mxGeometry x="900" y="330" width="40" height="20" as="geometry" />
        </mxCell>
        <mxCell id="9E403mk027WgOA1cJgYw-29" value="55" style="text;html=1;strokeColor=none;fillColor=none;align=center;verticalAlign=middle;whiteSpace=wrap;rounded=0;" parent="1" vertex="1">
          <mxGeometry x="1100" y="330" width="40" height="20" as="geometry" />
        </mxCell>
      </root>
    </mxGraphModel>
  </diagram>
  <diagram id="sZ1N_6nljnuOYkKfAf7h" name="Page-7">
    <mxGraphModel dx="1205" dy="459" grid="1" gridSize="10" guides="1" tooltips="1" connect="1" arrows="1" fold="1" page="1" pageScale="1" pageWidth="1169" pageHeight="827" math="0" shadow="0">
      <root>
        <mxCell id="zAVzM1Y5PzoIMySu90U9-0" />
        <mxCell id="zAVzM1Y5PzoIMySu90U9-1" parent="zAVzM1Y5PzoIMySu90U9-0" />
      </root>
    </mxGraphModel>
  </diagram>
  <diagram id="a4LECfSNi3ztoQqqU9N0" name="FCFS">
    <mxGraphModel dx="1205" dy="459" grid="1" gridSize="10" guides="1" tooltips="1" connect="1" arrows="1" fold="1" page="1" pageScale="1" pageWidth="1169" pageHeight="827" math="0" shadow="0">
      <root>
        <mxCell id="pum2mSamRggLGp7CybUB-0" />
        <mxCell id="pum2mSamRggLGp7CybUB-1" parent="pum2mSamRggLGp7CybUB-0" />
      </root>
    </mxGraphModel>
  </diagram>
  <diagram id="ONaGcxcDHxKWhnWIQ2ye" name="SJF">
    <mxGraphModel dx="1205" dy="459" grid="1" gridSize="10" guides="1" tooltips="1" connect="1" arrows="1" fold="1" page="1" pageScale="1" pageWidth="1169" pageHeight="827" math="0" shadow="0">
      <root>
        <mxCell id="1d-6ZDZ-7GPv0bI-bjg5-0" />
        <mxCell id="1d-6ZDZ-7GPv0bI-bjg5-1" parent="1d-6ZDZ-7GPv0bI-bjg5-0" />
      </root>
    </mxGraphModel>
  </diagram>
  <diagram id="MIjfFkTgclKjY3ADUEmI" name="SRTF">
    <mxGraphModel dx="1205" dy="459" grid="1" gridSize="10" guides="1" tooltips="1" connect="1" arrows="1" fold="1" page="1" pageScale="1" pageWidth="1169" pageHeight="827" math="0" shadow="0">
      <root>
        <mxCell id="DDNQCfGdcolXv3RYDffz-0" />
        <mxCell id="DDNQCfGdcolXv3RYDffz-1" parent="DDNQCfGdcolXv3RYDffz-0" />
      </root>
    </mxGraphModel>
  </diagram>
  <diagram id="ZDmxlX9q_1cXYkZDUeu4" name="P">
    <mxGraphModel dx="1205" dy="459" grid="1" gridSize="10" guides="1" tooltips="1" connect="1" arrows="1" fold="1" page="1" pageScale="1" pageWidth="1169" pageHeight="827" math="0" shadow="0">
      <root>
        <mxCell id="Q2YZX1B1Ah4XS6rPsbND-0" />
        <mxCell id="Q2YZX1B1Ah4XS6rPsbND-1" parent="Q2YZX1B1Ah4XS6rPsbND-0" />
      </root>
    </mxGraphModel>
  </diagram>
  <diagram id="SOlZ13wG1nHFLA2_TpA6" name="RR">
    <mxGraphModel dx="1205" dy="459" grid="1" gridSize="10" guides="1" tooltips="1" connect="1" arrows="1" fold="1" page="1" pageScale="1" pageWidth="1169" pageHeight="827" math="0" shadow="0">
      <root>
        <mxCell id="cz1wYry7-GHUAsOfXXu8-0" />
        <mxCell id="cz1wYry7-GHUAsOfXXu8-1" parent="cz1wYry7-GHUAsOfXXu8-0" />
      </root>
    </mxGraphModel>
  </diagram>
</mxfile>
